<?xml version="1.0" encoding="UTF-8" standalone="no"?>
<!-- Created with Inkscape (http://www.inkscape.org/) -->

<svg
   xmlns:dc="http://purl.org/dc/elements/1.1/"
   xmlns:cc="http://creativecommons.org/ns#"
   xmlns:rdf="http://www.w3.org/1999/02/22-rdf-syntax-ns#"
   xmlns:svg="http://www.w3.org/2000/svg"
   xmlns="http://www.w3.org/2000/svg"
   xmlns:sodipodi="http://sodipodi.sourceforge.net/DTD/sodipodi-0.dtd"
   xmlns:inkscape="http://www.inkscape.org/namespaces/inkscape"
   version="1.1"
   id="svg2"
   xml:space="preserve"
   width="2730.6667"
   height="2730.6667"
   viewBox="0 0 2730.6667 2730.6667"
   sodipodi:docname="RoboGearTrade.svg"
   inkscape:version="0.92.2 (5c3e80d, 2017-08-06)"><metadata
     id="metadata8"><rdf:RDF><cc:Work
         rdf:about=""><dc:format>image/svg+xml</dc:format><dc:type
           rdf:resource="http://purl.org/dc/dcmitype/StillImage" /><dc:title></dc:title></cc:Work></rdf:RDF></metadata><defs
     id="defs6"><linearGradient
       x1="0"
       y1="0"
       x2="1"
       y2="0"
       gradientUnits="userSpaceOnUse"
       gradientTransform="matrix(2047.9999,-2047.9999,-2047.9999,-2047.9999,0,2048)"
       spreadMethod="pad"
       id="linearGradient30"><stop
         style="stop-opacity:1;stop-color:#0097dc"
         offset="0"
         id="stop24" /><stop
         style="stop-opacity:1;stop-color:#6c439a"
         offset="0.5"
         id="stop26" /><stop
         style="stop-opacity:1;stop-color:#bf1d37"
         offset="1"
         id="stop28" /></linearGradient><clipPath
       clipPathUnits="userSpaceOnUse"
       id="clipPath40"><path
         d="M 0,2048 H 2048 V 0 H 0 Z"
         id="path38"
         inkscape:connector-curvature="0" /></clipPath></defs><sodipodi:namedview
     pagecolor="#ffffff"
     bordercolor="#666666"
     borderopacity="1"
     objecttolerance="10"
     gridtolerance="10"
     guidetolerance="10"
     inkscape:pageopacity="0"
     inkscape:pageshadow="2"
     inkscape:window-width="1298"
     inkscape:window-height="825"
     id="namedview4"
     showgrid="false"
     inkscape:pagecheckerboard="true"
     inkscape:zoom="0.17285156"
     inkscape:cx="798.65862"
     inkscape:cy="1347.3981"
     inkscape:window-x="1731"
     inkscape:window-y="585"
     inkscape:window-maximized="0"
     inkscape:current-layer="g10" /><g
     id="g10"
     inkscape:groupmode="layer"
     inkscape:label="RoboGearTrade"
     transform="matrix(1.3333333,0,0,-1.3333333,0,2730.6667)"><g
       id="g34"><g
         id="g36"
         clip-path="url(#clipPath40)"><g
           id="g42"
           transform="translate(1218.0596,1695.1211)"><path
             d="m 0,0 -293.573,20.368 c 61.299,-36.18 112.516,-45.555 144.175,-47.751 C -112.504,-29.943 -65.711,-27.368 0,0"
             style="fill:#a7a9ac;fill-opacity:1;fill-rule:nonzero;stroke:none"
             id="path44"
             inkscape:connector-curvature="0" /></g><g
           id="g46"
           transform="translate(1380.8555,1085.9844)"><path
             d="m 0,0 c 90.821,-55.206 259.981,63.986 259.981,63.986 l -152.11,422.262 c 0,0 -111.659,-194.167 -123.475,-299.033 z"
             style="fill:#d1d3d4;fill-opacity:1;fill-rule:nonzero;stroke:none"
             id="path48"
             inkscape:connector-curvature="0" /></g><g
           id="g50"
           transform="translate(1380.8555,1085.9844)"><path
             d="m 0,0 -15.604,187.215 c 11.816,104.866 123.475,299.033 123.475,299.033 l -270.667,122.889 c -65.711,-27.368 -112.504,-29.943 -149.398,-27.384 -31.659,2.197 -82.876,11.572 -144.175,47.751 l -285.054,-84.333 c 0,0 83.78,-207.727 80.999,-313.219 L -701.732,48.685 -812.794,-688.163 c 0,0 38.686,-29.258 406.315,-55.003 0.801,-0.056 1.56,-0.108 2.353,-0.163 0.797,-0.056 1.559,-0.108 2.355,-0.163 367.675,-25.27 410.015,-1.634 410.015,-1.634 z"
             style="fill:#f1f1f2;fill-opacity:1;fill-rule:nonzero;stroke:none"
             id="path52"
             inkscape:connector-curvature="0" /></g><g
           id="g54"
           transform="translate(679.123,1134.6694)"><path
             d="m 0,0 c -97.561,-42.137 -248.655,99.274 -248.655,99.274 l 208.964,397.212 c 0,0 83.78,-207.727 80.999,-313.219 z"
             style="fill:#d1d3d4;fill-opacity:1;fill-rule:nonzero;stroke:none"
             id="path56"
             inkscape:connector-curvature="0" /></g><g
           id="g58"
           transform="translate(901.8818,1708.7954)"><path
             d="m 0,0 c 0,0 46.308,-53.313 165.356,-61.572 119.044,-8.26 172.286,38.147 172.286,38.147 l -21.464,9.751 c 0,0 -72.163,-32.112 -151.227,-27.257 C 85.886,-36.084 22.605,6.693 22.605,6.693 Z"
             style="fill:#d1d3d4;fill-opacity:1;fill-rule:nonzero;stroke:none"
             id="path60"
             inkscape:connector-curvature="0" /></g><g
           id="g62"
           transform="translate(1156.2344,1016.4043)"><path
             d="m 0,0 c -14.203,-3.173 -28.377,-3.29 -41.836,-0.791 l 17.083,71.033 C -11.419,69.407 1.095,77.068 6.414,89.325 L 77.436,72.245 C 66.961,37.127 38.308,8.559 0,0 m -124.839,79.244 c -3.173,14.203 -3.29,28.377 -0.791,41.836 l 71.033,-17.083 C -55.433,90.663 -47.771,78.149 -35.514,72.83 L -52.594,1.809 c -35.118,10.474 -63.686,39.128 -72.245,77.435 m 79.243,124.839 c 14.204,3.173 28.377,3.29 41.837,0.791 l -17.083,-71.033 c -13.335,0.835 -25.848,-6.827 -31.167,-19.083 l -71.021,17.079 c 10.474,35.119 39.128,63.687 77.434,72.246 M 79.243,124.839 c 3.174,-14.204 3.29,-28.377 0.792,-41.836 L 9.002,100.085 c 0.835,13.335 -6.826,25.849 -19.083,31.168 l 17.08,71.021 C 42.117,191.8 70.686,163.146 79.243,124.839 m 28.004,-62.398 28.338,2.513 3.426,20.392 -25.952,11.63 c 0.211,5.741 0.059,11.542 -0.479,17.376 l 25.638,13.069 -4.509,20.181 -28.762,0.915 c -2.2,6.071 -4.809,11.905 -7.781,17.486 l 18.255,21.807 -11.998,16.842 -26.587,-10.133 c -3.954,4.252 -8.168,8.236 -12.61,11.933 l 8.705,27.106 -17.458,11.082 -20.825,-19.413 c -5.764,2.693 -11.726,4.99 -17.845,6.859 l -2.513,28.338 -20.393,3.426 -11.628,-25.952 c -5.742,0.21 -11.543,0.06 -17.377,-0.479 l -13.07,25.638 -20.18,-4.509 -0.915,-28.762 c -6.072,-2.2 -11.906,-4.81 -17.486,-7.781 l -21.807,18.255 -16.842,-11.998 10.133,-26.587 c -4.252,-3.954 -8.236,-8.168 -11.933,-12.61 l -27.106,8.705 -11.082,-17.458 19.413,-20.825 c -2.693,-5.765 -4.99,-11.726 -6.859,-17.845 l -28.338,-2.513 -3.426,-20.393 25.952,-11.629 c -0.21,-5.741 -0.059,-11.542 0.478,-17.376 l -25.637,-13.069 4.509,-20.181 28.762,-0.916 c 2.2,-6.071 4.81,-11.905 7.781,-17.485 l -18.255,-21.808 11.997,-16.841 26.587,10.132 c 3.955,-4.251 8.169,-8.235 12.611,-11.932 l -8.705,-27.107 17.459,-11.082 20.824,19.414 c 5.764,-2.693 11.726,-4.99 17.846,-6.86 l 2.512,-28.338 20.393,-3.425 11.629,25.952 c 5.741,-0.21 11.542,-0.06 17.376,0.478 l 13.069,-25.638 20.181,4.509 0.916,28.763 c 6.071,2.2 11.905,4.809 17.485,7.781 L 62.971,-36.177 79.813,-24.18 69.681,2.407 c 4.252,3.955 8.235,8.169 11.932,12.611 l 27.107,-8.705 11.081,17.458 -19.413,20.825 c 2.693,5.764 4.99,11.726 6.859,17.845"
             style="fill:#231f20;fill-opacity:1;fill-rule:nonzero;stroke:none"
             id="path64"
             inkscape:connector-curvature="0" /></g><g
           id="g66"
           transform="translate(857.71,1249.6284)"><path
             d="m 0,0 c -3.886,3.694 -7.371,7.651 -10.46,11.814 l 55.466,32.923 c 2.625,-2.187 5.609,-3.84 8.78,-4.919 l 0.779,-64.494 C 34.812,-22.918 15.492,-14.724 0,0 M -20.788,102.247 35.477,70.663 c -0.571,-3.301 -0.549,-6.711 0.114,-10.064 l -55.477,-32.93 c -10.888,23.501 -11.25,50.763 -0.902,74.578 m 146.175,29.676 c 3.886,-3.694 7.371,-7.651 10.46,-11.814 L 80.381,87.186 c -2.625,2.188 -5.609,3.84 -8.78,4.919 l -0.779,64.494 c 19.753,-1.758 39.074,-9.952 54.565,-24.676 M 146.175,29.676 89.91,61.26 c 0.572,3.301 0.549,6.712 -0.114,10.064 l 55.477,32.929 c 10.889,-23.5 11.25,-50.762 0.902,-74.577 M -3.268,128.655 c 15.324,16.122 35.148,25.39 55.645,27.719 l 0.78,-64.488 C 51.6,91.311 50.071,90.595 48.592,89.718 47.114,88.84 45.753,87.841 44.503,86.749 l -56.247,31.574 c 2.535,3.594 5.357,7.05 8.476,10.332 M 128.655,3.268 C 113.332,-12.854 93.507,-22.123 73.01,-24.451 l -0.78,64.488 c 1.558,0.575 3.086,1.291 4.565,2.168 1.478,0.878 2.839,1.877 4.089,2.969 L 137.131,13.6 c -2.535,-3.594 -5.357,-7.05 -8.476,-10.332 m -15.959,-69.762 16.4,7.414 -4.18,24.395 c 4.264,2.641 8.397,5.573 12.364,8.804 l 21.841,-12.223 12.399,13.046 -13.315,21.191 c 3.333,4.547 6.293,9.276 8.892,14.144 l 24.614,-2.618 6.353,16.838 -20.216,14.302 c 1.156,4.92 1.991,9.897 2.509,14.9 l 23.813,6.854 -0.457,17.992 -24.13,5.636 c -0.85,5.473 -2.08,10.895 -3.696,16.224 l 19.262,15.559 -7.414,16.4 -24.396,-4.181 c -2.633,4.254 -5.557,8.376 -8.777,12.333 l 12.302,21.984 -13.045,12.399 -21.331,-13.402 c -4.536,3.322 -9.254,6.274 -14.11,8.868 l 2.619,24.614 -16.839,6.354 -14.302,-20.217 c -4.92,1.155 -9.897,1.991 -14.9,2.509 L 68.102,207.437 50.11,206.98 44.474,182.851 c -5.473,-0.849 -10.895,-2.08 -16.224,-3.697 l -15.559,19.263 -16.399,-7.414 4.18,-24.396 c -4.254,-2.633 -8.375,-5.557 -12.333,-8.777 l -21.984,12.302 -12.399,-13.045 13.403,-21.331 c -3.323,-4.536 -6.276,-9.254 -8.869,-14.11 l -24.614,2.619 -6.354,-16.839 20.217,-14.302 c -1.156,-4.92 -1.991,-9.897 -2.509,-14.9 l -23.812,-6.854 0.457,-17.992 24.129,-5.636 c 0.849,-5.473 2.081,-10.895 3.697,-16.224 l -19.263,-15.559 7.414,-16.399 24.396,4.18 c 2.64,-4.265 5.573,-8.398 8.803,-12.365 l -12.222,-21.84 13.045,-12.399 21.192,13.315 c 4.546,-3.333 9.275,-6.293 14.143,-8.893 l -2.618,-24.614 16.838,-6.354 14.302,20.217 c 4.92,-1.156 9.897,-1.991 14.901,-2.509 l 6.853,-23.812 17.992,0.456 5.636,24.13 c 5.473,0.849 10.896,2.08 16.225,3.697 z"
             style="fill:#231f20;fill-opacity:1;fill-rule:nonzero;stroke:none"
             id="path68"
             inkscape:connector-curvature="0" /></g><g
           id="g70"
           transform="translate(1124.8496,1341.1377)"><path
             d="m 0,0 c -0.6,0.192 -1.193,0.396 -1.783,0.605 l 17.16,25.879 c 11.378,-1.165 23.002,3.86 29.761,14.054 6.759,10.194 6.864,22.857 1.363,32.885 L 63.668,99.312 C 77.939,83.686 83.676,61.063 76.749,39.468 66.454,7.375 32.093,-10.295 0,0 m -39.468,76.749 c 10.295,32.092 44.656,49.762 76.748,39.468 0.601,-0.193 1.194,-0.397 1.784,-0.606 L 21.904,89.733 C 10.526,90.897 -1.098,85.873 -7.857,75.679 -14.617,65.485 -14.722,52.822 -9.221,42.794 L -26.387,16.905 c -14.272,15.626 -20.009,38.248 -13.081,59.844 m 132.57,-89.447 8.38,10.019 -10.427,14.627 c 1.955,3.072 3.731,6.291 5.305,9.654 l 18.131,-1.1 3.989,12.437 -15.386,9.652 c 0.744,4.023 1.187,8.048 1.351,12.05 l 16.914,6.052 -1.158,13.01 -17.724,2.972 c -0.797,3.58 -1.821,7.097 -3.06,10.531 l 13.402,11.99 -5.973,11.616 -17.55,-3.927 c -2.281,3.31 -4.796,6.466 -7.533,9.439 l 7.683,16.245 -10.018,8.381 -14.627,-10.427 c -3.064,1.95 -6.275,3.722 -9.627,5.293 l 1.106,18.249 -12.437,3.99 -9.715,-15.488 c -4.014,0.741 -8.028,1.183 -12.02,1.346 l -6.052,16.914 -13.01,-1.158 -2.972,-17.725 c -3.581,-0.796 -7.097,-1.82 -10.531,-3.06 l -11.99,13.403 -11.616,-5.973 3.926,-17.55 c -3.309,-2.281 -6.465,-4.796 -9.438,-7.533 l -16.245,7.683 -8.381,-10.018 10.427,-14.627 c -1.95,-3.064 -3.722,-6.275 -5.293,-9.628 l -18.249,1.108 -3.991,-12.438 15.489,-9.715 c -0.742,-4.013 -1.183,-8.028 -1.347,-12.02 l -16.914,-6.052 1.158,-13.01 17.726,-2.972 c 0.796,-3.581 1.82,-7.097 3.059,-10.531 l -13.403,-11.99 5.974,-11.616 17.549,3.927 c 2.282,-3.31 4.796,-6.466 7.534,-9.439 l -7.683,-16.246 10.018,-8.38 14.627,10.426 c 3.072,-1.954 6.291,-3.731 9.654,-5.305 l -1.1,-18.131 12.438,-3.989 9.652,15.387 c 4.022,-0.744 8.047,-1.188 12.049,-1.352 l 6.052,-16.914 13.01,1.158 2.972,17.725 c 3.58,0.797 7.097,1.82 10.53,3.06 l 11.992,-13.403 11.615,5.974 -3.927,17.549 c 3.31,2.281 6.466,4.797 9.439,7.534 z"
             style="fill:#231f20;fill-opacity:1;fill-rule:nonzero;stroke:none"
             id="path72"
             inkscape:connector-curvature="0" /></g></g></g></g></svg>